<?xml version="1.0"?>
<svg xmlns="http://www.w3.org/2000/svg" height="512px" viewBox="-20 0 489 489.47" width="512px" class=""><g><path d="m76.15625 255.714844h-39.953125c-3.316406 0-6 2.683594-6 6v39.957031c0 3.3125 2.683594 6 6 6h39.953125c3.316406 0 6-2.6875 6-6v-39.957031c0-3.316406-2.683594-6-6-6zm-6 39.957031h-27.953125v-27.957031h27.953125zm0 0" data-original="#000000" class="active-path" data-old_color="#486cd9" fill="#486cd9"/><path d="m143.085938 255.714844h-39.957032c-3.316406 0-6 2.683594-6 6v39.957031c0 3.3125 2.683594 6 6 6h39.957032c3.3125 0 6-2.6875 6-6v-39.957031c0-3.316406-2.6875-6-6-6zm-6 39.957031h-27.957032v-27.957031h27.957032zm0 0" data-original="#000000" class="active-path" data-old_color="#486cd9" fill="#486cd9"/><path d="m216.003906 255.714844h-39.957031c-3.3125 0-6 2.683594-6 6v39.957031c0 3.3125 2.6875 6 6 6h39.957031c3.3125 0 6-2.6875 6-6v-39.957031c0-3.316406-2.6875-6-6-6zm-6 39.957031h-27.957031v-27.957031h27.957031zm0 0" data-original="#000000" class="active-path" data-old_color="#486cd9" fill="#486cd9"/><path d="m76.15625 325.632812h-39.953125c-3.316406 0-6 2.6875-6 6v39.960938c0 3.3125 2.683594 6 6 6h39.953125c3.316406 0 6-2.6875 6-6v-39.960938c0-3.3125-2.683594-6-6-6zm-6 39.957032h-27.953125v-27.957032h27.953125zm0 0" data-original="#000000" class="active-path" data-old_color="#486cd9" fill="#486cd9"/><path d="m143.085938 325.632812h-39.957032c-3.316406 0-6 2.6875-6 6v39.960938c0 3.3125 2.683594 6 6 6h39.957032c3.3125 0 6-2.6875 6-6v-39.960938c0-3.3125-2.6875-6-6-6zm-6 39.957032h-27.957032v-27.957032h27.957032zm0 0" data-original="#000000" class="active-path" data-old_color="#486cd9" fill="#486cd9"/><path d="m216.003906 325.632812h-39.957031c-3.3125 0-6 2.6875-6 6v39.960938c0 3.3125 2.6875 6 6 6h39.957031c3.3125 0 6-2.6875 6-6v-39.960938c0-3.3125-2.6875-6-6-6zm-6 39.957032h-27.957031v-27.957032h27.957031zm0 0" data-original="#000000" class="active-path" data-old_color="#486cd9" fill="#486cd9"/><path d="m76.15625 395.558594h-39.953125c-3.316406 0-6 2.6875-6 6v39.957031c0 3.3125 2.683594 6 6 6h39.953125c3.316406 0 6-2.6875 6-6v-39.957031c0-3.3125-2.683594-6-6-6zm-6 39.957031h-27.953125v-27.957031h27.953125zm0 0" data-original="#000000" class="active-path" data-old_color="#486cd9" fill="#486cd9"/><path d="m143.085938 395.558594h-39.957032c-3.316406 0-6 2.6875-6 6v39.957031c0 3.3125 2.683594 6 6 6h39.957032c3.3125 0 6-2.6875 6-6v-39.957031c0-3.3125-2.6875-6-6-6zm-6 39.957031h-27.957032v-27.957031h27.957032zm0 0" data-original="#000000" class="active-path" data-old_color="#486cd9" fill="#486cd9"/><path d="m216.003906 395.558594h-39.957031c-3.3125 0-6 2.6875-6 6v39.957031c0 3.3125 2.6875 6 6 6h39.957031c3.3125 0 6-2.6875 6-6v-39.957031c0-3.3125-2.6875-6-6-6zm-6 39.957031h-27.957031v-27.957031h27.957031zm0 0" data-original="#000000" class="active-path" data-old_color="#486cd9" fill="#486cd9"/><path d="m93.105469 180.117188c-.035157 0-.070313 0-.105469 0-.039062 0-.070312 0-.105469 0-4.867187-.0625-8.78125-4.019532-8.785156-8.886719 0-3.3125-2.6875-6-6-6-3.316406 0-6 2.6875-6 6 .015625 9.21875 6.0625 17.34375 14.890625 20v3.75c0 3.3125 2.683594 6 6 6 3.3125 0 6-2.6875 6-6v-3.746094c9.933594-2.972656 16.183594-12.785156 14.679688-23.046875-1.503907-10.257812-10.308594-17.863281-20.679688-17.855469-4.914062 0-8.894531-3.980469-8.894531-8.890625 0-4.914062 3.984375-8.894531 8.894531-8.894531s8.890625 3.984375 8.890625 8.894531c0 3.3125 2.6875 6 6 6 3.316406 0 6-2.6875 6-6-.015625-9.21875-6.0625-17.34375-14.890625-20v-3.070312c0-3.3125-2.6875-6-6-6-3.316406 0-6 2.6875-6 6v3.070312c-9.9375 2.972656-16.1875 12.78125-14.683594 23.042969 1.507813 10.261719 10.3125 17.863281 20.683594 17.855469 4.878906.015625 8.835938 3.957031 8.863281 8.835937.03125 4.882813-3.878906 8.871094-8.757812 8.945313zm0 0" data-original="#000000" class="active-path" data-old_color="#486cd9" fill="#486cd9"/><path d="m159.722656 71.460938h12.441406c3.3125 0 6-2.683594 6-6 0-3.3125-2.6875-6-6-6h-12.441406c-3.3125 0-6 2.6875-6 6 0 3.316406 2.6875 6 6 6zm0 0" data-original="#000000" class="active-path" data-old_color="#486cd9" fill="#486cd9"/><path d="m78.109375 71.460938h60.117187c3.3125 0 6-2.683594 6-6 0-3.3125-2.6875-6-6-6h-60.117187c-3.316406 0-6 2.6875-6 6 0 3.316406 2.683594 6 6 6zm0 0" data-original="#000000" class="active-path" data-old_color="#486cd9" fill="#486cd9"/><path d="m149.734375 190.800781h22.429687c3.3125 0 6-2.6875 6-6 0-3.316406-2.6875-6-6-6h-22.429687c-3.316406 0-6 2.683594-6 6 0 3.3125 2.683594 6 6 6zm0 0" data-original="#000000" class="active-path" data-old_color="#486cd9" fill="#486cd9"/><path d="m133.09375 178.800781h-3.339844c-3.3125 0-6 2.683594-6 6 0 3.3125 2.6875 6 6 6h3.339844c3.316406 0 6-2.6875 6-6 0-3.316406-2.683594-6-6-6zm0 0" data-original="#000000" class="active-path" data-old_color="#486cd9" fill="#486cd9"/><path d="m78.109375 101.433594h60.117187c3.3125 0 6-2.6875 6-6s-2.6875-6-6-6h-60.117187c-3.316406 0-6 2.6875-6 6s2.683594 6 6 6zm0 0" data-original="#000000" class="active-path" data-old_color="#486cd9" fill="#486cd9"/><path d="m159.722656 41.496094h12.441406c3.3125 0 6-2.6875 6-6 0-3.316406-2.6875-6-6-6h-12.441406c-3.3125 0-6 2.683594-6 6 0 3.3125 2.6875 6 6 6zm0 0" data-original="#000000" class="active-path" data-old_color="#486cd9" fill="#486cd9"/><path d="m78.109375 41.496094h60.117187c3.3125 0 6-2.6875 6-6 0-3.316406-2.6875-6-6-6h-60.117187c-3.316406 0-6 2.683594-6 6 0 3.3125 2.683594 6 6 6zm0 0" data-original="#000000" class="active-path" data-old_color="#486cd9" fill="#486cd9"/><path d="m390.410156 354.632812c-3.316406 0-6 2.6875-6 6s2.683594 6 6 6h52.558594c3.105469-.019531 5.683594-2.402343 5.945312-5.496093.257813-3.097657-1.886718-5.878907-4.945312-6.414063v-38.75c-.042969-36.433594-29.566406-65.957031-66-66h-11.339844v-15.363281c0-3.3125-2.6875-6-6-6h-16v-28.457031h8.5v4c0 3.316406 2.6875 6 6 6h30c8.835938 0 16-7.160156 16-16 0-8.835938-7.164062-16-16-16h-30c-3.3125 0-6 2.6875-6 6v4h-45v-4c0-3.3125-2.6875-6-6-6h-30c-8.835937 0-16 7.164062-16 16 0 8.839844 7.164063 16 16 16h30c3.3125 0 6-2.683594 6-6v-4h8.5v28.457031h-16c-3.3125 0-6 2.6875-6 6v15.363281h-42.65625v-103.132812c-.019531-14.339844-11.640625-25.960938-25.980468-25.976563h-23.964844v-21.550781l54.113281.859375c1.609375.027344 3.160156-.59375 4.308594-1.71875 1.148437-1.128906 1.792969-2.671875 1.792969-4.28125v-58.070313c-.027344-19.929687-16.175782-36.0781245-36.105469-36.101562h-139.988281c-19.855469.0234375-35.945313 16.109375-35.96875 35.960938v84.902343h-23.964844c-14.34375.015625-25.964844 11.636719-25.980469 25.976563v316.652344c.015625 14.339843 11.636719 25.960937 25.980469 25.976562h199.777344c14.339843-.015625 25.960937-11.636719 25.980468-25.976562v-159.519532h36.96875c3.867188 19.085938 20.625 32.820313 40.097656 32.859375 19.472657.042969 36.289063-13.617187 40.234376-32.6875 12.050781 1.46875 21.117187 11.6875 21.132812 23.828125zm-25.28125-164.480468h24c2.210938 0 4 1.792968 4 4 0 2.210937-1.789062 4-4 4h-24zm-69 8h-24c-2.210937 0-4-1.789063-4-4 0-2.207032 1.789063-4 4-4h24zm-94.101562-35.324219h7.980468v47.9375h-7.980468zm48.210937-126.726563v51.976563l-48.210937-.769531v-51.207032c0-13.3125 10.792968-24.105468 24.105468-24.105468s24.105469 10.792968 24.105469 24.105468zm-188.058593-.140624c.015624-13.230469 10.738281-23.949219 23.96875-23.964844h113.128906c-5.960938 6.609375-9.257813 15.199218-9.25 24.101562v174.667969h-127.847656zm-19.976563 174.804687v-47.933594h7.976563v47.933594zm197.769531 252.726563c-.011718 7.714843-6.261718 13.96875-13.980468 13.976562h-199.777344c-7.71875-.007812-13.972656-6.261719-13.980469-13.976562v-316.652344c.007813-7.714844 6.261719-13.96875 13.980469-13.976563h23.964844v17.96875h-13.976563c-3.316406 0-6 2.6875-6 6v59.933594c0 3.316406 2.683594 6 6 6h179.800781c3.3125 0 6-2.683594 6-6v-59.933594c0-3.3125-2.6875-6-6-6h-13.976562v-17.96875h23.964844c7.71875.007813 13.96875 6.261719 13.980468 13.976563zm88.65625-263.339844h4v28.457031h-4zm-22 40.457031h48v9.363281h-48zm59.78125 51.363281h-2.351562c-3.171875 0-5.796875 2.472656-5.988282 5.636719-.980468 15.265625-13.644531 27.144531-28.941406 27.144531s-27.960937-11.878906-28.941406-27.144531c-.191406-3.164063-2.816406-5.636719-5.988281-5.636719h-42.226563v-30h126c29.808594.035156 53.964844 24.191406 54 54v38.660156h-29.5625v-26.660156c-.023437-19.871094-16.128906-35.976562-36-36zm0 0" data-original="#000000" class="active-path" data-old_color="#486cd9" fill="#486cd9"/><path d="m422.367188 378.507812c-1.078126-1.839843-3.046876-2.96875-5.179688-2.96875-2.128906 0-4.097656 1.128907-5.175781 2.96875l-23.175781 39.5625c-8.339844 14.261719-4.796876 32.5 8.277343 42.597657 13.078125 10.101562 31.621094 8.921875 43.3125-2.753907 10.566407-10.570312 12.667969-26.945312 5.113281-39.84375zm9.574218 70.925782c-7.417968 7.425781-19.203125 8.183594-27.511718 1.765625-8.304688-6.417969-10.550782-18.011719-5.238282-27.066407l18-30.726562 18 30.726562c4.796875 8.191407 3.460938 18.589844-3.25 25.300782zm0 0" data-original="#000000" class="active-path" data-old_color="#486cd9" fill="#486cd9"/></g> </svg>
